<?xml version="1.0" encoding="utf-8" ?><svg xmlns="http://www.w3.org/2000/svg" xmlns:xlink="http://www.w3.org/1999/xlink" width="1024" height="1024" viewBox="0 0 1024 1024"><path fill="#2B2D2F" d="M0 0L1024 0L1024 1024L0 1024L0 0Z"/><path fill="#39FF14" d="M345.738 31.6904C345.846 31.6735 345.955 31.6566 346.064 31.6397C356.097 30.6671 366.193 32.6809 375.085 37.4281C381.794 40.9813 388.282 46.3006 394.36 50.9137C453.817 96.0373 512.32 143.422 572.418 187.624C573.126 185.766 575.146 180.489 576.488 179.373C588.086 169.77 602.896 162.55 615.43 154.197C619.419 152.231 643.527 135.273 646.432 136.4C655.657 139.979 680.413 156.571 687.031 163.241C701.774 158.234 721.12 156.255 735.133 164.073C742.084 167.95 753.266 180.169 759.498 186.156L796.886 221.812L905.086 325.696C924.641 344.38 944.811 362.524 964.041 381.538C966.891 384.357 972.424 388.836 973.448 392.708C975.838 401.74 977.085 410.936 979.08 420.054C981.375 430.545 995.537 485.395 994.528 491.104C993.339 497.827 981.239 503.134 976.012 506.147L976.045 669.428L976.07 718.462C976.073 727.25 976.362 736.23 975.586 744.968C975.055 750.951 970.138 756.437 965.115 759.337C938.134 774.917 910.545 789.453 883.28 804.533C875.851 808.621 868.472 812.797 861.144 817.062C841.38 828.507 844.087 826.925 821.391 827.08C819.894 830.156 817.873 836.368 816.656 839.771C814.108 847.005 811.471 854.207 808.748 861.377C821.944 861.272 830.316 862.612 842.485 857.513C846.417 859.481 859.575 865.511 861.665 869.521C861.971 870.108 861.6 870.309 861.163 870.972C858.583 871.564 848.077 864.034 843.047 861.798C830.955 867.027 826.854 866.579 813.631 866.589C811.667 866.59 808.84 866.505 806.762 866.294C806.821 866.3 804.199 864.303 804.139 864.301C793.758 863.952 777.477 863.664 767.655 864.438C761.348 864.934 747.346 875.848 740.39 875.906C732.552 875.972 719.864 865.307 713.252 864.859C703.252 864.18 691.479 864.467 681.474 864.476L615.856 864.482C597.933 851.793 577.017 834.262 559.399 820.59C548.548 812.288 537.77 803.89 527.068 795.397C520.868 790.561 513.677 785.373 507.902 780.205L477.878 797.684L565.201 865.583C577.216 874.945 594.791 889.634 606.923 897.746C614.602 898.287 624.747 897.849 632.622 897.952C652.53 898.215 672.851 897.557 692.733 898.052C695.343 899.804 698.374 901.821 700.787 903.785C711.678 912.649 725.81 920.773 735.786 930.361C745.153 914.46 768.6 912.112 779.087 928.112C783.025 934.217 784.377 941.636 782.845 948.738C780.094 961.922 766.133 971.693 753.048 968.345C745.935 966.594 739.851 962.001 736.22 955.638C732.378 948.921 731.961 942.999 733.813 935.719C724.168 929.209 714.085 920.767 704.532 913.942C699.663 910.464 695.706 906.825 690.416 903.742C661.843 904.071 633.268 904.208 604.694 904.154C583.694 886.824 559.705 869.095 538.054 852.397L471.935 800.903C462.387 806.679 452.512 812.502 443.358 818.843C445.137 820.528 446.798 821.737 448.727 823.215C462.17 833.517 475.795 843.721 489.063 854.242C512.339 872.648 535.743 890.892 559.273 908.973C576.042 922.022 594.353 936.689 611.374 949.242C624.58 934.411 646.603 936.776 655.665 954.739C662.382 968.053 654.407 983.883 641.056 989.387C634.792 992.014 627.726 991.962 621.502 989.243C609.406 983.835 602.512 967.871 608.452 955.613L608.751 955.009L465.822 844.042C456.154 836.606 446.264 829.535 436.621 822.031C426.674 828.521 414.468 834.987 404.097 841.338C390.708 849.171 377.415 857.195 364.178 865.278C360.614 867.296 356.697 869.57 352.618 870.292C342.821 872.025 331.475 871.417 323.558 864.759C316.34 858.689 309.368 852.593 302.201 846.588L249.751 802.7L100.792 678.709C84.2446 664.766 67.8524 650.893 50.7528 637.58C43.6912 631.474 34.3081 625.301 28.2526 618.297C26.0561 615.757 32.5915 597.228 33.7647 593.19L41.8508 564.386C46.612 547.517 51.1985 530.518 56.4259 513.796C58.1671 508.227 69.5374 502.838 74.6737 499.646C89.9793 490.132 106.169 481.551 121.197 471.606C129.007 467.749 133.698 446.109 139.182 442.223C157.394 429.319 182.074 416.323 200.737 404.7C196.918 403.188 193.56 401.896 189.46 401.255C163.558 397.206 132.814 411.691 121.905 378.726C121.54 377.127 121.17 374.126 121.126 372.451C120.95 364.729 123.877 357.259 129.253 351.714C136.611 344.14 148.529 340.708 158.588 344.365C163.067 345.993 168.205 349.681 172.882 349.811C187.951 350.231 203.562 350.385 218.611 350.323C227.341 357.123 237.665 366.478 246.351 373.864C248.057 366.619 259.46 361.666 265.633 357.774C275.168 351.761 285.208 346.535 294.536 340.111C286.988 333.739 272.941 322.138 265.017 317.123C252.936 316.459 236.327 316.951 224.047 316.978L151.679 317.062L101.219 317.327C93.1833 317.393 83.1537 317.039 75.2945 318.295C72.0684 318.811 68.983 322.256 67.2308 324.946C66.7601 332.73 67.0322 342.553 67.067 350.497C76.5972 352.857 84.7669 358.934 88.4984 368.238C91.1244 374.79 90.9919 382.125 88.1311 388.577C81.869 402.654 65.3654 408.84 51.4192 401.882C37.9131 395.144 33.1986 377.971 39.6143 364.711C43.7843 356.092 51.563 353.078 59.9637 350.238L59.7803 334.141C59.7664 326.923 60.1025 320.785 65.7467 315.359C68.2645 312.903 71.4906 311.302 74.9686 310.78C79.3525 310.112 92.6528 310.106 97.4459 310.058L144.073 309.939C184.907 309.89 226.398 308.992 267.024 309.151C271.086 311.696 275.894 315.975 279.744 319.007C287.012 324.728 294.283 330.472 301.335 336.456C323.345 321.732 323.672 332.204 342.348 343.552C344.86 339.993 346.714 336.538 348.82 332.751C336.942 324.608 326.302 315.023 314.734 306.569C303.547 298.393 292.79 289.651 281.677 281.444C245.909 281.051 209.144 281.484 173.268 281.391C168.251 278.21 161.627 272.767 156.87 269.018C147.825 261.891 139.239 255.023 129.827 248.352C122.9 256.43 114.088 260.704 103.265 258.734C96.1698 257.49 89.8917 253.398 85.8879 247.41C77.4793 234.907 80.4761 215.807 93.3882 208.65C118.488 194.738 139.79 215.821 134.505 241.645C145.303 251.971 157.975 260.404 169.346 270.092C171.087 271.575 172.738 272.905 174.703 274.084C197.229 273.583 220.242 274.005 242.805 273.833C255.989 273.733 269.814 274.257 282.946 273.634C289.603 277.845 295.641 283.249 302.004 287.83C318.607 299.784 335.29 314.218 351.843 325.855C355.198 318.837 361.142 306.359 366.821 301.349C355.266 291.417 341.499 281.088 329.396 271.855L279.289 233.486L192.792 233.528C188.622 230.808 182.826 226.023 178.759 222.858L155.292 204.715L113.315 172.167C104.432 165.358 86.8986 152.997 78.4115 144.463C77.8213 143.87 78.0511 142.216 78.3362 141.329C79.9477 139.767 83.7873 139.899 85.2674 141.092C91.4092 146.043 98.1724 151.223 104.393 155.979L171.12 207.644C178.006 212.962 188.528 222.57 195.797 226.391C199.82 226.056 204.173 225.977 208.223 226.006C232.554 226.186 257.016 225.612 281.334 226.072C286.52 229.627 293.464 235.357 298.603 239.297L325.915 259.963C341.447 271.855 360.298 285.473 375.216 297.778C382.886 292.299 392.581 286.687 400.726 281.513C377.274 261.006 348.118 240.596 323.289 221.407L292.359 197.217C288.468 194.235 281.458 188.559 277.406 186.46C267.715 186.486 258.024 186.565 248.333 186.698C241.434 186.809 226.44 188.158 220.293 186.313C214.001 184.426 152.455 135.224 141.898 127.132C129.616 117.717 116.689 108.753 104.717 98.9936C103.585 98.0708 101.781 96.6404 101.304 95.2111C100.937 94.111 101.136 93.2348 101.876 92.3114C102.401 91.657 103.065 91.3592 103.857 91.2356C105.721 90.9447 107.486 91.9714 108.998 92.9431C113.305 95.7099 117.265 99.4465 121.343 102.559C128.334 107.894 135.526 112.975 142.53 118.303L221.433 179.165C240.352 179.061 262.34 178.342 280.989 179.046L408.338 276.99C415.629 272.582 424.82 266.332 432.843 264.322C438.792 266.249 449.697 274.718 455.036 278.58C457.419 273.227 460.787 267.797 462.918 262.322C458.396 259.61 457.539 259.096 452.539 257.581C445.39 255.415 433.21 258.283 427.571 254.469C423.235 251.536 417.319 246.436 412.947 243.053L372.422 211.501C342.448 188.902 312.742 165.949 283.313 142.645C273.483 134.939 260.37 125.926 251.41 118.239C241.915 123.711 233.325 125.038 223.164 119.731C201.104 108.21 204.197 73.8447 229.558 68.3654C236.913 66.7259 244.618 68.1451 250.906 72.2975C265.285 81.6501 266.661 99.3374 257.645 113.049C262.732 117.345 269.268 122.183 274.568 126.37L318.294 160.392L432.016 248.698C438.919 249.224 447.272 248.183 453.943 249.882C457.987 250.912 463.384 253.443 467.477 255.069C470.064 250.105 472.683 245.158 475.335 240.228C463.974 230.334 447.371 218.575 434.941 208.956C396.098 178.898 356.584 149.653 317.711 119.592C307.175 112.255 300.532 100.419 299.418 87.6066C296.854 58.1136 316.927 34.9105 345.738 31.6904Z"/><path fill="#2B2D2F" d="M646.272 145.945C652.531 146.607 666.137 158.231 672.313 161.699C676.954 164.305 680.473 168.596 683.357 173.008C693.053 169.755 704.281 166.9 714.601 167.314C720.318 167.634 729.857 169.933 734.176 173.808C746.688 185.035 759.27 197.499 771.411 209.121L857.024 291.814C864.295 298.841 872.026 305.621 879.391 312.613L931.94 362.69C942.639 372.838 956.845 385.314 966.625 396.061C972.702 426.343 979.502 459.892 987.453 489.622C983.423 492.919 971.113 499.922 966.32 502.796C952.858 510.955 939.337 519.015 925.756 526.975L792.794 604.209L359.384 858.717C349.33 864.524 339.411 865.697 329.471 858.661C311.696 845.043 294.022 828.716 276.641 814.349L139.043 699.835L63.3161 637.489C57.9193 633.036 38.6029 618.286 35.3517 613.67C37.2622 606.868 39.8732 599.634 41.9162 592.68L53.8378 550.698C56.9589 539.951 60.8548 527.069 63.2249 516.219C65.1857 514.626 67.1626 513.518 69.3267 512.225C83.9922 503.467 98.5953 494.657 113.106 485.635C117.078 483.165 125.304 479.481 128.614 476.64C135.655 470.598 138.268 455.908 144.391 448.615C146.504 446.14 155.665 441.053 158.963 439.011C175.764 428.624 192.755 418.55 209.929 408.794C216.398 411.593 223.457 418.177 229.99 421.83C236.698 407.617 244.465 393.932 251.221 379.727C252.021 378.043 253.03 375.623 254.415 374.362C259.234 369.972 311.267 339.13 317.898 336.802C326.674 340.715 335.795 349.873 345.908 354.121C353.999 342.069 359.7 324.826 367.438 312.924C370.895 307.607 393.399 295.387 400.288 291.244C409.687 285.591 422.683 277.156 432.342 272.73C440.391 277.037 449.777 283.967 458.011 288.891C463.744 279.457 468.592 269.309 473.731 259.528C476.307 254.625 478.76 249.382 482.181 245.004C486.167 239.905 533.257 213.028 541.196 209.034C548.409 211.975 555.96 218.111 562.838 222.465C570.653 211.956 575.988 195.142 583.33 185.026C584.757 183.06 640.039 148.855 646.272 145.945Z"/><path fill="#39FF14" d="M957.675 416.822C957.915 416.912 958.559 417.364 958.807 417.525C960.908 422.117 963.549 438.131 964.897 444.191C967.731 456.931 970.687 469.923 973.344 482.695C970.353 484.844 967.192 486.751 964.065 488.692C946.739 499.45 928.872 509.272 911.274 519.573L786.611 592.316C644.992 674.308 503.848 757.118 363.187 840.743C359.732 842.812 356.266 844.863 352.789 846.895C352.189 840.957 356.698 770.854 357.859 768.144C358.858 765.81 446.229 715.343 456.685 709.096C491.406 688.353 526.538 668.387 561.496 648.056L787.207 516.845L904.116 448.467C913.316 443.144 922.471 437.744 931.581 432.268C940.074 427.085 948.85 421.33 957.675 416.822Z"/><path fill="#2B2D2F" d="M952.9 428.951C952.977 428.984 953.067 428.996 953.13 429.051C954.425 430.181 963.57 473.053 964.833 478.457C951.783 488.062 931.075 498.884 916.413 507.598L797.522 577.073L368.952 828.056C366.165 829.816 364.418 830.703 361.479 832.142C361.345 815.353 364.011 788.63 365.427 771.434C392.401 757.019 419.491 739.716 445.824 724.033L543.951 666.86L805.702 515.01L900.423 459.429C916.109 450.197 937.252 436.904 952.9 428.951Z"/><path fill="#39FF14" d="M708.836 178.7C714.383 177.869 723.017 179.01 727.236 182.603C749.522 201.583 770.358 223.659 791.519 243.831C845.878 296.586 900.764 348.796 956.169 400.452C944.302 408.604 927.456 418.524 915.141 425.822C897.574 436.391 879.92 446.816 862.182 457.095L663.292 573.106L446.162 699.438L387.019 733.92C374.728 741.223 361.68 749.745 348.961 756.096C343.91 752.954 332.053 742.425 326.743 738.147L271.127 692.788L74.8206 530.68C73.9058 529.799 72.7879 528.84 72.1587 527.725C71.6368 526.801 71.2603 525.624 71.6988 524.582C73.6002 520.063 115.05 497.471 121.217 495.157C119.328 501.484 111.267 515.856 107.844 522.349C113.886 527.181 120.865 533.715 127.093 538.9L191.122 592.057C203.207 602.01 215.762 611.51 228.019 621.266L294.758 674.719C309.588 686.569 324.006 699.29 338.962 711.026C344.791 715.6 351.759 721.801 357.785 725.77C357.907 725.716 358.03 725.662 358.152 725.608L358.757 725.326C363.36 723.213 370.226 718.711 374.724 715.962C382.874 710.974 391.061 706.046 399.283 701.178C433.054 680.639 467.03 660.438 501.205 640.578L907.107 403.818C899.693 390.855 893.995 376.194 886.374 363.13C883.766 358.968 880.708 351.274 877.008 348.13C862.446 335.756 845.773 325.232 831.088 312.961C830.907 309.308 830.552 306.145 830.128 302.509C819.077 289.325 787.156 271.646 773.269 258.883C770.919 256.723 767.733 251.978 765.936 250.708C749.296 238.95 733.519 225.05 716.118 214.631C712.622 212.551 702.967 219.108 699.432 221.258C697.856 217.833 686.337 186.77 687.73 183.973C689.036 181.352 704.369 179.217 708.836 178.7Z"/><path fill="#39FF14" d="M741.862 373.407C752.064 381.362 763.483 388 773.73 395.895C776.674 398.162 790.794 407.508 790.911 410C788.102 413.761 741.341 440.629 733.24 445.469C666.067 485.615 598.664 525.372 531.032 564.738L442.617 615.873C424.447 626.37 405.046 637.232 387.239 648.194L381.839 651.304C368.808 641.329 352.343 628.81 339.878 618.226C341.008 615.17 341.813 612.418 344.497 610.574C357.453 601.675 371.569 593.969 384.965 585.753C418.997 564.839 453.266 544.313 487.765 524.179L741.862 373.407Z"/><path fill="#39FF14" d="M68.9002 541.862L268.325 706.886C286.479 721.496 304.505 736.265 322.402 751.19C326.911 754.892 341.987 766.591 344.596 770.055L341.071 815.018C340.41 824.466 339.924 841.059 337.796 849.328L330.917 843.753L127.686 673.365L79.7415 634.102C73.8144 629.313 52.4138 612.64 49.3668 608.461C53.1361 594.479 57.0565 580.538 61.1274 566.641C63.2978 559.25 66.1116 548.847 68.9002 541.862Z"/><path fill="#2B2D2F" d="M72.9188 556.706C85.4929 565.196 98.2277 576.999 110.201 586.673C142.284 612.892 174.209 639.303 205.976 665.905L287.997 733.078C302.029 744.518 323.606 761.423 336.582 773.715C335.844 778.415 335.434 786.525 335.014 791.577C333.889 805.289 332.863 819.009 331.936 832.736L326.658 828.557C311.209 816.074 296.34 803.326 281.098 790.674L170.261 698.246L102.335 641.989C87.6383 629.959 72.3332 617.99 58.0117 605.551C60.9722 593.563 68.7551 567.654 72.9188 556.706Z"/><path fill="#39FF14" d="M793.183 422.847C793.84 422.917 793.959 423.07 794.599 423.374C797.031 427.7 802.579 445.712 803.733 450.783C799.943 453.576 794.241 456.576 790.055 458.972L768.251 471.557L691.457 516.077L483.156 638.326L409.655 681.756C398.922 688.235 387.634 694.792 377.253 701.71C375.031 703.139 372.791 704.331 370.48 705.602C371.022 697.258 373.091 690.036 374.945 681.895C376.444 675.033 377.887 668.159 379.275 661.274L385.83 662.077C393.801 658.199 407.433 649.585 415.692 644.75C436.864 632.177 458.11 619.728 479.428 607.404C554.778 563.964 629.832 520.012 704.584 475.551C721.815 465.431 738.989 455.215 756.107 444.904C767.018 438.252 782.19 428.259 793.183 422.847Z"/><path fill="#39FF14" d="M317.214 348.43C320.3 349.384 337.578 361.161 339.135 363.756C343.375 370.819 347.679 380.391 351.262 388.013C356.203 398.525 361.97 409.092 366.55 419.701C362.652 422.065 343.101 433.072 341.251 434.617C339.828 435.788 338.614 437.191 337.659 438.767C335.899 441.697 333.589 448.352 332.044 451.795C329.182 458.175 326.217 464.392 323.211 470.702C320.231 468.346 316.642 465.852 313.541 463.585C302.522 455.089 301.095 452.994 287.57 458.568C286.412 449.102 282.035 400.065 278.195 395.174C274.174 390.052 265.616 391.351 261.372 386.28C260.492 383.512 261.384 381.931 263.715 380.365C270.262 375.966 277.29 372.133 284.126 368.178C295.237 361.733 306.267 355.15 317.214 348.43Z"/><path fill="#39FF14" d="M431.742 283.926C437.372 286.84 461.257 303.057 463.385 307.949C469.348 321.654 475.616 336.457 481.735 350.227C472.865 356.944 433.635 377.694 430.276 382.132C426.296 387.39 423.629 397.324 421.196 403.624L418.7 409.33C411.863 403.831 411.382 403.876 409.42 394.572C405.192 374.56 401.482 354.026 396.28 334.339C394.311 326.886 374.884 327.502 375.846 319.52C378.316 315.666 423.839 288.967 431.742 283.926Z"/><path fill="#39FF14" d="M541.313 221.423L542.012 221.358C548.334 224.641 566.011 236.157 570.508 241.176C574.7 245.854 594.245 290.858 597.351 299.71C594.861 298.227 593.317 297.394 590.462 296.685C587.063 295.841 583.499 295.924 580.142 296.925C574.899 298.486 563.629 305.62 558.641 308.606L535.027 322.574C527.539 327.234 526.311 328.457 521.37 335.614C516.587 328.824 515.506 317.125 514.082 308.934C512.368 298.897 510.594 288.87 508.761 278.853C508.103 275.083 507.904 269.427 505.71 266.628C501.823 261.674 494.115 261.862 489.474 258.072C486.337 255.51 490.653 251.75 492.744 250.349C498.779 246.305 505.154 242.725 511.433 239.071C521.439 233.268 531.4 227.385 541.313 221.423Z"/><path fill="#39FF14" d="M297.292 466.449C300.889 467.731 337.421 493.428 342.148 497.441C341.235 501.24 340.768 502.981 339.334 506.589C332.232 511.664 313.889 521.476 305.621 526.334C294.643 532.831 283.596 539.211 272.481 545.47C267.494 548.296 262.338 551.466 257.184 553.946C254.64 555.17 251.264 554.982 248.401 554.987C241.787 553.707 228.55 540.918 222.595 536.289C218.476 533.086 207.009 525.091 204.252 521.565C205.625 519.983 207.956 518.161 209.789 517.091C233.243 503.41 256.584 489.526 280.06 475.883C285.569 472.682 291.53 469.071 297.292 466.449Z"/><path fill="#39FF14" d="M713.582 225.857C713.67 225.857 713.757 225.846 713.844 225.855C716.304 226.122 754.777 255.376 758.063 258.858C756.355 264.155 755.759 268.293 750.534 271.111C733.392 280.247 717.068 290.91 699.995 300.157C690.274 305.422 682.734 312.61 671.621 313.897C670.501 313.922 669.287 313.971 668.189 313.717C664.116 312.773 629.974 289.451 627.735 285.393C626.705 283.524 626.621 281.638 627.199 279.608C627.716 277.79 628.668 276.456 630.161 275.313C638.138 269.202 648.268 264.743 656.944 259.631L713.582 225.857Z"/><path fill="#39FF14" d="M647.201 157.414C647.951 157.481 647.759 157.378 648.364 157.73C650.781 159.136 669.442 172.228 670.663 173.732C674.451 178.398 687.391 218.045 689.493 226.553C685.653 229.768 674.021 236.27 669.212 239.104L630.243 262.056L620.844 267.615C617.034 249.052 614.112 229.587 610.741 210.92C610.363 209.232 609.819 205.39 608.882 204.04C605.596 199.31 592.437 198.731 591.45 192.636C597.141 186.345 637.563 163.292 647.201 157.414Z"/><path fill="#39FF14" d="M209.631 421.346C211.101 421.249 224.93 431.629 226.28 433.297C230.236 438.186 233.487 445.332 236.526 450.95C240.313 457.91 244.175 464.829 248.111 471.706C236.668 478.983 224.736 485.333 213.13 492.282C203.429 498.091 192.144 501.702 186.489 511.867C187.438 522.46 184.563 525.239 179.492 534.694L174.492 544.468C174.38 522.435 174.987 500.327 174.769 478.295C174.631 464.272 150.737 466.003 150.739 458.118C152.816 453.738 160.212 450.149 164.503 447.743C179.704 439.221 194.387 429.77 209.631 421.346Z"/><path fill="#39FF14" d="M332.27 530.434C335.642 531.19 370.609 557.551 376.561 561.779L375.941 570.999C367.723 577.447 342.565 591.142 332.398 596.472C331.569 596.907 325.279 596.993 323.839 597.027C320.938 597.106 317.961 597.032 315.054 597.001C313.192 595.735 311.488 594.248 309.76 592.805C299.203 583.996 288.068 575.871 277.814 566.699C278.569 564.996 280.416 560.467 281.714 559.551C287.086 555.755 294.713 551.961 300.487 548.727C311.116 542.69 321.71 536.592 332.27 530.434Z"/><path fill="#39FF14" d="M490.894 359.503C492.35 359.465 493.362 359.364 494.653 360.149C500.617 363.777 506.394 368.314 512.136 372.309C520.851 378.372 529.705 384.138 538.292 390.344C537.322 395.093 536.589 398.116 534.642 402.528C529.226 406.721 500.161 423.777 494.169 425.603C491.966 426.274 489.404 426.129 487.117 426.141C483.901 425.889 480.282 423.141 477.703 421.256C467.169 413.559 456.528 406.021 445.981 398.341C443.943 396.856 441.287 394.457 440.326 392.084C439.462 389.948 443.697 386.89 445.148 385.803C455.772 379.25 466.687 373.178 477.293 366.586C481.629 363.9 486.01 361.029 490.894 359.503Z"/><path fill="#39FF14" d="M403.004 411.907C407.079 413.05 441.632 438.092 446.591 441.573C446.43 446.057 445.98 450.526 445.246 454.952C438.715 462.353 422.231 469.396 413.748 475.087C408.639 478.515 401.967 480.356 395.82 478.864C389.466 474.628 354.614 451.116 352.1 447.742C350.891 446.119 350.953 443.591 351.238 441.706C353.377 439.951 355.808 438.758 358.207 437.393C373.146 428.896 387.569 419.512 403.004 411.907Z"/><path fill="#39FF14" d="M423.775 483.134C429.15 483.667 431.756 485.282 436.118 488.315C446.624 495.618 458.114 502.188 468.21 510.018C467.635 512.719 466.013 521.809 463.833 523.209C453.449 529.878 426.734 548.525 415.226 548.705C409.216 547.118 378.174 522.806 370.926 517.447C371.398 515.241 371.797 512.858 372.215 510.627C379.867 506.578 387.477 502.449 395.043 498.241C401.684 494.503 417.567 484.38 423.775 483.134Z"/><path fill="#39FF14" d="M773.983 274.393C778.113 275.106 816.541 303.872 819.993 307.962C818.708 311.885 818.082 314.782 814.353 317.126C803.954 323.666 793.092 329.529 782.472 335.712C778.977 337.747 774.832 340.225 771.042 341.494C770.234 341.619 769.423 341.722 768.61 341.804C764.319 342.209 756.37 335.024 752.641 332.351C743.475 325.779 733.438 319.545 724.88 312.26C724.867 307.618 724.455 303.531 728.779 300.872C743.213 291.998 758.875 281.915 773.983 274.393Z"/><path fill="#39FF14" d="M825.566 323.964C828.847 323.93 840.303 333.526 843.507 335.943C852.726 343.026 862.172 349.807 871.832 356.276C872.226 358.35 871.971 361.538 870.857 363.4C868.817 366.81 828.262 389.482 823.074 390.973C821.651 391.053 820.064 390.967 818.699 390.539C815.333 389.486 777.774 361.478 776.878 358.952C776.313 357.359 776.619 354.416 777.279 352.884C779.295 348.208 817.961 327.464 825.566 323.964Z"/><path fill="#39FF14" d="M584.244 306.471C590.462 306.039 600.422 313.902 605.611 317.346C613.957 322.935 622.337 328.473 630.751 333.96C630.441 338.066 629.756 342.135 628.705 346.116C626.972 347.353 623.689 349.447 621.797 350.348C610.601 355.68 594.626 368.872 582.95 371.109C581.886 371.076 580.806 371.043 579.754 370.879C578.034 370.61 576.406 369.7 574.933 368.819C570.61 366.234 538.322 344.189 536.822 341.493C535.974 339.969 535.906 337.933 536.528 336.311C538.071 332.289 577.861 309.575 584.244 306.471Z"/><path fill="#39FF14" d="M513.095 429.372C516.36 430.114 550.201 452.702 555.282 456.586C554.852 460.2 554.008 468.068 550.797 470.284C539.949 477.77 526.074 485.812 514.167 491.576C512.132 492.561 507.745 492.33 505.619 492.166C503.568 491.517 501.645 490.571 499.811 489.45C494.997 486.511 464.373 465.124 463.291 462.16C462.969 461.277 462.895 460.89 463.243 460.032C465.602 454.223 504.543 433.178 513.095 429.372Z"/><path fill="#39FF14" d="M597.322 378.484C604.222 378.158 614.645 386.283 620.421 390.072C628.411 395.314 636.192 400.732 644.355 405.766C643.435 414.396 642.463 417.56 634.238 421.707C623.605 427.068 610.016 438.386 598.596 440.885C594.361 441.076 587.575 438.284 584.826 435.37C579.5 429.725 550.787 414.123 551.526 406.812C554.801 402.221 590.492 381.819 597.322 378.484Z"/><path fill="#39FF14" d="M686.916 328.372C692.425 329.108 725.117 353.523 731.611 358.349L730.907 365.904C719.397 372.931 696.32 388.401 684.71 391.137L683.801 390.979C680.714 390.414 677.135 389.088 674.557 387.473C668.988 383.983 642.174 365.096 639.823 361.73C639.236 358.791 639.887 356.748 642.56 355.185C657.132 346.661 672.24 336.48 686.916 328.372Z"/><path fill="#00CED1" d="M271.285 576.714C275.063 579.43 279.43 583.302 283.175 586.291C291.716 593.089 300.318 599.809 308.98 606.451C305.955 623.037 302.279 648.928 300.697 665.377L291.204 658.179C275.543 646.09 260.16 633.646 245.065 620.857C254.083 605.992 262.789 591.908 271.285 576.714Z"/><path fill="#00CED1" d="M334.349 628.732C336.059 629.707 343.985 636.098 345.92 637.598C353.86 643.785 361.857 649.898 369.91 655.938C367.334 669.089 363.951 682.231 361.681 695.49C360.775 700.785 359.592 706.982 358.126 712.077C355.514 710.325 353.184 708.193 350.793 706.137C337.736 695.29 322.271 683.819 309.889 672.686C318.385 658.845 326.521 643.084 334.349 628.732Z"/><path fill="#00CED1" d="M195.209 530.188C209.178 539.127 224.553 553.917 238.671 563.756C237.395 580.089 234.514 595.426 232.851 611.591L225.657 606.067C208.569 592.742 192.403 579.291 175.531 565.89L195.209 530.188Z"/><path fill="#00CED1" d="M369.56 331.774C376.834 334.982 377.86 337.065 387.264 339.817L399.71 400.633L380.999 411.453C379.369 412.375 377.449 413.265 375.752 414.104C368.089 397.214 359.342 381.171 352.142 364.439C356.514 358.805 364.575 340.209 369.56 331.774Z"/><path fill="#39FF14" d="M878.824 370.927C880.345 372.442 893.004 396.736 894.385 399.942C887.998 403.775 879.221 407.968 872.437 411.693C859.179 419.096 846.048 426.721 833.047 434.566C829.833 436.515 827.334 438.122 823.867 439.593C822.609 432.689 823.223 417.526 823.461 409.943C823.642 407.494 824.935 404.389 826.956 402.874C842.826 390.98 863.089 382.984 878.824 370.927Z"/><path fill="#00CED1" d="M145.248 469.749C148.691 471.849 159.915 476.365 164.351 478.358C163.476 503.954 164.583 529.172 163.024 554.975L149.797 543.664C143.731 538.386 125.669 522.674 119.619 519.261C128.852 503.562 136.836 485.972 145.248 469.749Z"/><path fill="#00CED1" d="M481.955 265.971C486.351 269.125 491.387 271.171 496.319 273.362C498.404 284.906 500.613 296.426 502.946 307.922C505.62 320.761 510.585 343.996 510.83 356.862C506.935 354.734 504.699 353.104 500.454 351.403C498.3 350.772 495.194 350.227 492.926 349.756C488.822 337.858 474.528 303.443 466.812 294.981C470.868 286.081 477.338 275.06 481.955 265.971Z"/><path fill="#00CED1" d="M254.985 395.8C260.446 400.3 263.011 401.088 269.62 403.781C273.099 423.765 274.02 444.933 277.113 464.724C271.755 468.032 266.354 471.271 260.913 474.441C253.866 459.812 245.621 444.953 237.836 430.679C243.845 418.799 249.217 407.79 254.985 395.8Z"/><path fill="#00CED1" d="M585.484 204.164C590.611 206.877 593.725 208.659 599.256 210.485C604.143 230.637 606.102 254.538 611.045 274.462C609.672 278.732 607.257 285.503 605.181 289.372L603 285.338C597.645 273.668 585.065 240.156 577.899 232.46C576.338 230.784 573.932 229.699 571.931 228.624C576.14 220.303 580.661 212.144 585.484 204.164Z"/><path fill="#00CED1" d="M343.922 457L344.659 457.419C347.112 458.84 355.682 464.777 357.442 466.382C361.858 470.406 384.107 484.412 385.083 488.25C384.936 488.981 384.698 490.244 384.122 490.762C377.865 496.396 368.789 498.877 362.461 504.5C360.101 508.893 358.374 512.196 355.493 516.304C354.372 513.243 352.956 510.417 351.552 507.479C354.81 488.198 347.186 488.3 333.16 477.815C336.002 471.146 339.525 462.591 343.922 457Z"/><path fill="#00CED1" d="M617.153 293.139C621.523 295.396 632.717 303.955 636.964 307.088C644.578 312.608 652.287 317.996 660.088 323.249C658.905 327.398 657.9 330.291 656.351 334.331L650.797 337.346C648.116 339.268 645.733 340.662 642.899 342.339C643.276 339.524 644.416 331.269 642.223 329.421C632.785 321.469 621.735 314.599 611.805 307.212C613.04 303.091 615.527 297.274 617.153 293.139Z"/><path fill="#00CED1" d="M528.691 350.224C539.919 358.635 554.728 369.924 566.548 376.902C566.664 378.88 566.538 381.482 566.499 383.51C563.45 385.744 559.227 388.081 555.901 390.045C553.662 391.405 550.908 392.842 548.578 394.127C548.667 381.794 546.611 382.652 536.78 375.211C531.918 371.531 526.709 367.99 521.734 364.449C523.508 360.077 526.512 354.53 528.691 350.224Z"/><path fill="#00CED1" d="M769.364 366.817C774.123 371.427 781.102 376.408 786.517 380.4C795.632 386.985 804.646 393.708 813.556 400.568C813.252 405.057 812.559 435.59 811.589 436.656C810.301 435.793 810.319 435.305 809.529 433.793C806.742 423.53 807.272 416.562 805.193 408.132C801.211 403.396 795.085 399.428 790.262 395.472C781.01 387.883 771.025 381.31 761.465 374.155C765.476 371.673 766.557 370.381 769.364 366.817Z"/><path fill="#00CED1" d="M456.445 472.88C465.028 478.736 486.826 494.077 495.275 501.951C495.673 502.322 495.64 505.425 495.236 506.582C493.944 510.287 489.501 512.086 486.143 513.88L478.901 518.066C479.282 513.803 479.515 510.437 479.574 506.168C473.794 499.609 457.724 489.951 450.102 485.257C451.836 481.159 454.31 476.832 456.445 472.88Z"/><path fill="#00CED1" d="M435.126 404.166C437.665 405.492 446.869 412.378 449.729 414.545C457.743 420.615 467.066 426.87 474.755 433.181C473.674 435.402 472.594 437.855 471.552 440.113L464.955 444.059C462.091 445.836 460.468 446.735 457.42 448.166L457.471 438.513C453.685 432.889 436.393 420.874 430.087 416.202C431.542 411.999 433.23 408.177 435.126 404.166Z"/><path fill="#00CED1" d="M719.414 322.969C733.514 332.177 746.466 342.598 760.128 352.144C759.066 355.005 755.325 366.619 753.024 367.306L751.805 366.514C748.502 364.411 746.565 363.888 742.854 363.152C744.849 353.808 744.187 353.632 736.43 347.766C728.096 341.464 718.048 335.685 710.343 328.72L709.784 328.21L719.414 322.969Z"/><path fill="#00CED1" d="M547.342 420.776C548.907 421.78 551.451 424.102 552.955 425.33C564.109 434.441 576.387 442.235 587.593 451.249C584.582 453.382 580.928 455.486 577.734 457.423L568.942 462.553L566.842 452.44C562.379 447.671 547.471 438.2 541.226 433.822C543.29 428.898 544.784 425.441 547.342 420.776Z"/><path fill="#00CED1" d="M363.467 525.963C374.029 533.311 399.177 551.724 407.659 559.816C404.78 561.785 401.072 563.788 397.99 565.553C394.42 567.492 391.085 569.785 387.7 572.031C387.515 567.31 387.602 562.033 387.577 557.268C381.769 550.644 366.823 542.302 359.215 534.555C360.598 531.005 361.567 529.296 363.467 525.963Z"/><path fill="#00CED1" d="M632.368 371.303C645.907 381.146 660.081 391.122 673.219 401.415C670.362 403.418 666.311 405.732 663.262 407.589L655.501 411.927C655.507 407.528 655.521 405.883 654.782 401.554C650.414 396.532 632.441 384.622 626.355 381.052C628.112 377.961 630.468 374.373 632.368 371.303Z"/><path fill="#39FF14" d="M266.081 563.106L266.53 563.747C266.067 565.701 247.367 596.796 245.055 600.883L244.647 600.605C244.271 597.65 248.566 571.228 249.163 566.496C255.959 566.527 259.644 564.997 266.081 563.106Z"/><path fill="#39FF14" d="M321.986 609.733C324.868 609.453 328.635 609.456 331.593 609.383C328.743 616.51 323.383 625.831 319.398 632.237C318.065 634.604 316.491 637.123 315.087 639.474C315.583 633.42 317.283 612.705 321.986 609.733Z"/><path fill="#39FF14" d="M348.147 513.575L348.697 514.12C350.238 518.952 349.679 522.447 348.062 527.069C346.144 526.106 344.134 524.879 342.263 523.792C340.708 522.653 339.139 521.377 337.617 520.18C341.073 517.381 344.252 515.661 348.147 513.575Z"/><path fill="#39FF14" d="M535.463 415.904L536.264 416.139C536.305 417.707 533.126 424.987 532.281 427.374L529.25 425.416C527.723 424.508 526.089 423.416 524.577 422.453C527.988 420.099 531.852 417.98 535.463 415.904Z"/><path fill="#39FF14" d="M444.507 469.915L444.857 470.014L445.16 470.596C443.982 473.241 442.727 476.076 440.453 477.936L439.209 477.616C437.354 476.299 437.301 476.744 436.987 475.116C438.209 472.953 442.14 471.224 444.507 469.915Z"/><path fill="#1D4B37" d="M203.449 507.467L204.102 507.939C202.772 510.077 197.311 511.931 194.826 512.93L194.312 512.615C195.599 511.363 201.501 508.48 203.449 507.467Z"/><path fill="#2B2D2F" d="M927.632 535.063L928.312 535.592C929.252 539.713 928.982 551.793 928.984 556.472L928.975 593.815C928.956 636.964 928.988 680.164 929.054 723.315C929.056 724.783 928.96 725.177 928.397 726.494C922.178 731.78 900.25 742.972 891.47 748.069C869 761.337 846.406 774.393 823.69 787.235C820.427 789.09 804.748 798.615 802.695 799.247C798.152 800.646 778.925 799.882 773.153 799.8C758.918 775.159 729.288 780.039 720.368 805.833C686.156 805.8 648.736 806.518 614.899 805.581C607.309 799.248 599.286 793.072 591.452 787.019C578.545 777.045 563.921 764.901 550.296 755.983C559.745 749.548 572.326 742.302 582.348 737.005C591.454 743.245 628.483 773.114 635.126 776.546C635.856 776.923 702.491 777 709.47 776.245C711.361 776.04 728.374 764.782 732.49 762.25C754.666 748.51 776.993 735.016 799.469 721.772C811.931 714.477 829.456 705.707 840.868 696.981C843.497 694.97 846.471 688.519 846.888 684.879C848.342 672.158 847.53 657.187 847.594 644.244C847.696 623.271 848.079 602.521 847.559 581.588C860.377 574.108 873.25 566.724 886.178 559.436L886.063 654.804L886.156 683.819C886.171 689.139 886.509 694.709 885.925 699.987C885.666 702.336 884.496 705.042 883.092 706.931C878.231 713.475 842.704 732.216 832.839 737.955C827.288 741.185 805.175 752.915 802.458 757.128C802.779 759.111 803.559 759.757 805.357 760.394C807.902 759.476 827.871 747.289 831.728 745.078C847.708 735.818 863.895 726.895 879.829 717.557C893.95 709.281 892.068 696.041 891.998 682.101L891.828 652.042C891.672 620.324 891.914 588.213 891.392 556.54C899.678 550.937 918.711 539.981 927.632 535.063Z"/><path fill="#2B2D2F" d="M968.42 511.03L968.8 511.557C969.627 516.799 969.436 526.574 969.45 532.137L969.515 565.567L969.735 681.813C969.735 693.18 969.825 704.547 970.006 715.913C970.157 725.304 972.945 746.606 964.873 752.069C951.635 761.029 936.616 768.39 922.574 776.155C895.36 790.884 868.403 806.081 841.713 821.74C836.686 821.764 823.405 820.275 819.353 822.479C814.847 824.93 806.53 852.236 803.987 858.6C791.506 859.36 772.879 857.492 761.696 860.48C759.057 861.185 745.098 868.69 740.605 870.582C732.77 868.14 721.955 860.839 716.264 859.53C711.548 858.445 693.261 859.007 687.251 858.968C664.361 858.817 641.338 859.246 618.451 858.905C610.166 853.764 592.238 838.889 583.887 832.25C564.258 816.544 544.514 800.981 524.658 785.564L514.371 777.281C523.808 770.545 534.093 764.718 544.42 759.475C551.681 763.895 560.099 770.819 566.908 776.153C575.764 783.056 584.688 789.87 593.679 796.595C600.188 801.556 607.094 807.169 613.912 811.575C649.302 811.077 684.309 811.895 719.629 811.89C722.14 826.888 731.624 838.467 748.07 838.608C755.139 838.668 762.957 834.725 767.729 829.546C774.34 822.37 775.313 815.321 775.05 805.88C780.974 805.984 786.899 806.058 792.824 806.101C809.595 806.145 812.162 799.932 825.863 792.353C855.757 775.817 884.748 757.78 915.039 741.954C922.251 738.187 934.365 733.534 935.07 724.571C935.674 716.888 935.468 709.056 935.414 701.292L935.199 661.951L935.004 531.042C945.952 524.057 957.095 517.384 968.42 511.03Z"/><path fill="#2B2D2F" d="M350.181 39.2051C369.951 38.8015 382.959 52.3669 397.675 63.4719C416.598 77.8125 435.436 92.2649 454.188 106.829L533.786 168.14C545.283 177.072 557.111 185.305 568.131 194.831C565.907 199.643 561.997 206.477 559.424 211.325C540.88 197.339 538.989 201.033 519.873 212.069C474.917 178.689 431.341 142.813 386.461 109.315C382.083 106.048 358.602 87.0269 355.451 86.0343C353.611 86.0452 353.082 86.7305 351.613 87.8786C350.986 89.1929 351.081 89.2661 350.974 90.7507C352.019 93.6296 366.251 103.297 369.566 105.9C393.66 124.819 418.158 143.186 442.273 162.088C465.559 180.339 489.943 197.792 512.709 216.668C505.282 221.883 489.768 230.009 481.464 234.458L382.233 158.88C368.277 148.404 354.374 137.859 340.524 127.243C327.331 117.318 311.626 109.69 307.833 92.4902C301.449 63.5452 321.436 41.0567 350.181 39.2051Z"/><path fill="#2B2D2F" d="M840.371 586.467L841.048 586.609C843.695 592.044 840.635 668.383 841.703 679.884C842.949 693.306 825.926 699.936 814.928 706.295L776.019 728.91C752.191 742.514 731.238 755.969 708.152 770.447L635.939 770.633C624.463 760.376 609.565 749.959 597.275 740.186L588.303 733.086C599.016 727.009 609.235 720.275 619.904 714.329C630.075 721.573 641.12 731.358 651.255 737.975C652.329 738.066 653.406 738.124 654.484 738.148C664.084 738.322 683.627 738.559 692.392 737.768C694.964 737.536 721.075 721.837 724.72 719.76L766.175 695.977C775.763 690.537 785.441 685.27 794.803 679.576C804.756 673.523 808.875 666.837 808.486 655.128C808.343 650.8 808.43 645.929 808.43 641.571L808.461 604.823C815.537 600.104 832.674 590.448 840.371 586.467Z"/><path fill="#2B2D2F" d="M801.555 608.938L801.971 609.103C803.137 611.386 802.262 625.569 802.4 629.209C802.489 635.862 802.485 642.564 802.6 649.211C802.765 658.713 803.089 667.556 793.813 673.097C786.585 677.415 779.321 681.5 772.079 685.707C754.726 695.79 737.314 705.77 719.843 715.646C711.412 720.446 699.922 727.551 691.149 731.595C689.462 732.372 676.828 732.081 674.149 732.088C667.366 732.168 660.585 732.312 653.805 732.522C647.348 728.174 640.492 722.502 634.342 717.592C631.303 715.315 628.252 713.055 625.187 710.813C635.148 704.675 645.547 698.856 655.664 692.907C665.691 699.254 681.039 705.055 693.113 700.174C700.197 697.311 709.737 690.92 716.578 686.772C730.005 678.631 745.014 671.129 757.934 662.378C760.254 660.81 762.419 659.025 764.401 657.047C772.297 649.132 771.15 637.124 771.189 626.658C781.116 620.504 791.155 614.265 801.555 608.938Z"/><path fill="#2B2D2F" d="M148.994 350.184C160.681 350.605 160.816 355.524 169.76 357.163C180.629 359.155 208.775 355.209 217.348 359.326C222.474 361.787 237.797 375.609 242.736 379.99C237.944 389.632 232.681 399.517 227.75 409.143L223.695 406.796C215.684 403.216 198.757 395.597 190.641 393.813C176.724 390.594 147.41 397.492 136.272 388.674C120.847 376.461 127.974 352.47 148.994 350.184Z"/><path fill="#2B2D2F" d="M764.943 629.999L765.456 630.748C766.094 638.138 764.734 649.651 758.922 653.944C750.014 660.522 736.094 667.97 726.655 673.505L705.943 685.684C691.482 694.273 684.676 698.742 667.524 692.179L662.971 689.796C686.555 675.256 710.954 661.795 734.635 647.406C744.608 641.347 754.759 635.689 764.943 629.999Z"/><path fill="#2B2D2F" d="M746.561 789.171C758.607 788.547 768.907 797.744 769.647 809.783C770.387 821.823 761.291 832.211 749.259 833.068C737.062 833.936 726.498 824.687 725.748 812.482C724.998 800.276 734.349 789.803 746.561 789.171Z"/><path fill="#2B2D2F" d="M629.188 945.097C640.416 943.557 650.766 951.411 652.305 962.639C653.845 973.867 645.99 984.217 634.761 985.755C623.534 987.294 613.186 979.44 611.647 968.213C610.108 956.986 617.961 946.637 629.188 945.097Z"/><path fill="#2B2D2F" d="M753.783 923.267C760.957 921.69 768.424 924.112 773.307 929.599C778.19 935.087 779.727 942.785 777.326 949.727C774.925 956.669 768.961 961.773 761.731 963.072C750.848 965.027 740.401 957.911 738.236 947.068C736.071 936.224 742.983 925.642 753.783 923.267Z"/><path fill="#2B2D2F" d="M232.385 75.5191C243.359 73.6615 253.765 81.0356 255.65 92.0042C257.535 102.973 250.186 113.398 239.222 115.309C228.22 117.228 217.751 109.848 215.86 98.8411C213.968 87.8341 221.374 77.3831 232.385 75.5191Z"/><path fill="#2B2D2F" d="M106.652 211.613C117.664 210.836 127.237 219.095 128.082 230.102C128.927 241.109 120.726 250.732 109.725 251.644C98.6279 252.564 88.9024 244.277 88.0502 233.175C87.198 222.072 95.5447 212.398 106.652 211.613Z"/><path fill="#2B2D2F" d="M61.3303 357.984C72.1774 356.772 81.9536 364.582 83.1668 375.429C84.3801 386.276 76.571 396.053 65.7242 397.267C54.8756 398.482 45.0966 390.671 43.8832 379.823C42.6697 368.974 50.4814 359.196 61.3303 357.984Z"/><path fill="#11A045" d="M849.171 886.133C852.408 884.803 855.37 883.796 858.122 881.237C860.062 879.433 860.976 874.918 862.894 873.361C863.397 873.455 863.9 873.548 864.403 873.642C867.734 877.246 864.959 882.65 861.737 885.308C859.324 887.299 854.835 889.091 851.742 889.747C837.063 892.555 825.429 890.427 811.243 886.64C807.153 885.548 794.985 884.055 793.634 879.945C796.244 876.592 804.674 879.803 807.873 881.061C822.029 886.628 833.906 888.868 849.171 886.133Z"/><path fill="#1D4B37" d="M849.171 886.133C852.408 884.803 855.37 883.796 858.122 881.237C860.062 879.433 860.976 874.918 862.894 873.361C863.397 873.455 863.9 873.548 864.403 873.642C867.734 877.246 864.959 882.65 861.737 885.308C859.324 887.299 854.835 889.091 851.742 889.747C853.772 886.679 861.254 886.485 862.637 883.132C859.182 881.605 854.287 885.879 849.171 886.133Z"/></svg>